<svg width="312" height="414" viewBox="0 0 312 414" fill="none" xmlns="http://www.w3.org/2000/svg">
<path d="M0.202026 185C25.0548 185 45.202 205.147 45.202 230V413H0.202026V185Z" fill="#FBBA00"/>
<path d="M266.202 230C266.202 205.147 286.349 185 311.202 185V413H266.202V230Z" fill="white"/>
<path d="M184.202 368C209.055 368 229.202 388.147 229.202 413H0.202026V368H184.202Z" fill="#FBBA00"/>
<path d="M311.202 105V150L0.202026 150V105L311.202 105Z" fill="white"/>
<path d="M297.948 381.022L266.351 413.063L-3.11265e-05 150.405L31.5969 118.364L297.948 381.022Z" fill="white"/>
<path d="M229.631 230.43C212.006 247.811 183.628 247.612 166.247 229.987C166.177 229.917 166.178 229.803 166.249 229.734L279.553 118L311.15 150.041L229.631 230.43Z" fill="white"/>
<circle cx="264.702" cy="46.5" r="46.5" fill="#FBBA00"/>
</svg>
