<svg width="1446" height="414" viewBox="0 0 1446 414" fill="none" xmlns="http://www.w3.org/2000/svg">
<path d="M0.202058 185C25.0549 185 45.2021 205.147 45.2021 230V413H0.202058V185Z" fill="#FBBA00"/>
<path d="M266.202 230C266.202 205.147 286.349 185 311.202 185V413H266.202V230Z" fill="#FAFAFA"/>
<path d="M184.202 368C209.055 368 229.202 388.147 229.202 413H0.202058L0.202057 368H184.202Z" fill="#FBBA00"/>
<path d="M311.202 105V150H0.202057V105H311.202Z" fill="#FAFAFA"/>
<path d="M297.948 381.022L266.351 413.063L0 150.405L31.5969 118.364L297.948 381.022Z" fill="#FAFAFA"/>
<path d="M229.631 230.43C212.006 247.811 183.628 247.612 166.247 229.987C166.177 229.917 166.178 229.803 166.249 229.734L279.553 118L311.15 150.041L229.631 230.43Z" fill="#FAFAFA"/>
<path d="M311.202 46.5C311.202 72.1812 290.383 93 264.702 93C239.021 93 218.202 72.1812 218.202 46.5C218.202 20.8188 239.021 0 264.702 0C290.383 0 311.202 20.8188 311.202 46.5Z" fill="#FBBA00"/>
<path d="M398.48 340V160.8H479.12C518.8 160.8 545.68 187.68 545.68 223.52C545.68 259.36 518.8 286.24 479.12 286.24H447.12V340H398.48ZM447.12 242.72H476.56C488.08 242.72 497.04 233.76 497.04 223.52C497.04 213.28 488.08 204.32 476.56 204.32H447.12V242.72Z" fill="white"/>
<path d="M567.64 340V160.8H611.16V340H567.64Z" fill="white"/>
<path d="M708.39 340V323.36H707.11C704.806 326.944 702.246 330.272 699.174 333.088C693.798 337.952 685.35 342.56 673.83 342.56C650.534 342.56 634.15 325.92 634.15 306.72C634.15 284.96 647.974 270.88 672.55 265.76L708.39 258.08C707.11 251.68 700.71 245.28 690.47 245.28C682.022 245.28 675.878 248.608 671.526 251.68C668.966 253.472 666.662 255.776 664.87 258.08L641.83 236.32C645.67 231.968 650.278 227.872 655.654 224.288C664.614 218.144 677.67 212 694.31 212C729.126 212 751.91 234.784 751.91 262.176V340H708.39ZM708.39 287.52V283.68L690.47 287.52C684.07 288.8 678.95 293.92 678.95 299.04C678.95 305.952 682.79 309.28 690.47 309.28C700.71 309.28 708.39 301.856 708.39 287.52Z" fill="white"/>
<path d="M789.1 293.92V258.08H771.18V217.12H778.86C787.82 217.12 794.22 210.72 794.22 201.76V178.72H832.62V217.12H856.94V258.08H832.62V286.24C832.62 296.48 837.228 301.6 846.7 301.6C850.284 301.6 853.356 301.088 855.916 300.32C857.196 300.064 858.476 299.552 859.5 299.04V338.72L852.076 340.768C847.212 341.792 840.812 342.56 833.9 342.56C807.02 342.56 789.1 324.896 789.1 293.92Z" fill="white"/>
<path d="M895.32 340V260.64H878.68V219.68H895.32V206.88C895.32 175.904 913.24 158.24 940.12 158.24C947.032 158.24 953.432 159.264 958.296 160.288L965.72 162.08V201.76L962.136 200.48C959.832 199.712 956.76 199.2 952.92 199.2C943.448 199.2 938.84 204.32 938.84 214.56V219.68H965.72V260.64H938.84V340H895.32Z" fill="white"/>
<path d="M1051.58 302.88C1064.38 302.88 1075.9 291.36 1075.9 277.28C1075.9 263.2 1064.38 251.68 1051.58 251.68C1038.78 251.68 1027.26 263.2 1027.26 277.28C1027.26 291.36 1038.78 302.88 1051.58 302.88ZM982.46 277.28C982.46 241.44 1011.9 212 1051.58 212C1091.26 212 1120.7 241.44 1120.7 277.28C1120.7 313.12 1091.26 342.56 1051.58 342.56C1011.9 342.56 982.46 313.12 982.46 277.28Z" fill="white"/>
<path d="M1145.11 340V214.56H1188.63V229.92C1190.93 226.848 1194.01 224.032 1197.33 221.728C1203.22 217.632 1211.67 213.28 1223.19 213.28H1228.31V259.36L1224.73 258.08C1222.42 257.312 1219.35 256.8 1215.51 256.8C1198.87 256.8 1188.63 266.784 1188.63 286.24V340H1145.11Z" fill="white"/>
<path d="M1248.86 340V214.56H1292.38V232.48H1293.66C1295.45 228.64 1298.01 225.312 1301.08 222.24C1306.46 217.12 1314.65 212 1326.94 212C1338.97 212 1347.42 217.632 1352.8 223.008C1355.87 226.08 1358.43 229.664 1360.22 233.76H1361.5C1364.06 229.664 1367.39 226.08 1371.48 223.008C1378.4 217.632 1388.64 212 1403.74 212C1427.04 212 1445.98 231.712 1445.98 265.76V340H1402.46V272.16C1402.46 259.104 1396.06 252.96 1387.1 252.96C1376.86 252.96 1369.18 260.384 1369.18 274.72V340H1325.66V272.16C1325.66 259.104 1319.26 252.96 1310.3 252.96C1300.06 252.96 1292.38 260.384 1292.38 274.72V340H1248.86Z" fill="white"/>
</svg>
